<mxfile host="app.diagrams.net" modified="2023-06-12T22:48:15.379Z" agent="Mozilla/5.0 (Windows NT 10.0; Win64; x64) AppleWebKit/537.36 (KHTML, like Gecko) Chrome/112.0.0.0 YaBrowser/23.5.1.714 Yowser/2.5 Safari/537.36" etag="fUEVdkStI9awd0E8ec9X" version="21.3.3" type="device">
  <diagram name="Страница 1" id="Y9AJWBZtpGtBQ1izn-uu">
    <mxGraphModel dx="1984" dy="1856" grid="1" gridSize="10" guides="1" tooltips="1" connect="1" arrows="1" fold="1" page="1" pageScale="1" pageWidth="827" pageHeight="1169" math="0" shadow="0">
      <root>
        <mxCell id="0" />
        <mxCell id="1" parent="0" />
        <mxCell id="OeJ3Y5abxEYUj80r9ZkN-1" value="Компания" style="text;html=1;strokeColor=#9673a6;fillColor=#e1d5e7;align=center;verticalAlign=middle;whiteSpace=wrap;rounded=0;" parent="1" vertex="1">
          <mxGeometry x="366" width="96" height="40" as="geometry" />
        </mxCell>
        <mxCell id="OeJ3Y5abxEYUj80r9ZkN-3" value="Отдел" style="rounded=0;whiteSpace=wrap;html=1;" parent="1" vertex="1">
          <mxGeometry x="40" y="80" width="120" height="60" as="geometry" />
        </mxCell>
        <mxCell id="OeJ3Y5abxEYUj80r9ZkN-4" value="Проект" style="rounded=0;whiteSpace=wrap;html=1;" parent="1" vertex="1">
          <mxGeometry x="225" y="80" width="120" height="60" as="geometry" />
        </mxCell>
        <mxCell id="OeJ3Y5abxEYUj80r9ZkN-5" value="Сотрудник" style="rounded=0;whiteSpace=wrap;html=1;" parent="1" vertex="1">
          <mxGeometry x="430" y="80" width="120" height="60" as="geometry" />
        </mxCell>
        <mxCell id="OeJ3Y5abxEYUj80r9ZkN-6" value="айди" style="text;html=1;strokeColor=none;fillColor=none;align=center;verticalAlign=middle;whiteSpace=wrap;rounded=0;" parent="1" vertex="1">
          <mxGeometry x="60" y="160" width="60" height="30" as="geometry" />
        </mxCell>
        <mxCell id="OeJ3Y5abxEYUj80r9ZkN-8" value="название" style="text;html=1;strokeColor=none;fillColor=none;align=center;verticalAlign=middle;whiteSpace=wrap;rounded=0;" parent="1" vertex="1">
          <mxGeometry x="60" y="180" width="60" height="30" as="geometry" />
        </mxCell>
        <mxCell id="OeJ3Y5abxEYUj80r9ZkN-9" value="местонахождение" style="text;html=1;strokeColor=none;fillColor=none;align=center;verticalAlign=middle;whiteSpace=wrap;rounded=0;" parent="1" vertex="1">
          <mxGeometry x="60" y="200" width="60" height="30" as="geometry" />
        </mxCell>
        <mxCell id="OeJ3Y5abxEYUj80r9ZkN-10" value="уник. имя" style="text;html=1;strokeColor=none;fillColor=none;align=center;verticalAlign=middle;whiteSpace=wrap;rounded=0;" parent="1" vertex="1">
          <mxGeometry x="260" y="160" width="60" height="30" as="geometry" />
        </mxCell>
        <mxCell id="OeJ3Y5abxEYUj80r9ZkN-11" value="уник. номер" style="text;html=1;strokeColor=none;fillColor=none;align=center;verticalAlign=middle;whiteSpace=wrap;rounded=0;" parent="1" vertex="1">
          <mxGeometry x="250" y="180" width="80" height="30" as="geometry" />
        </mxCell>
        <mxCell id="OeJ3Y5abxEYUj80r9ZkN-12" value="бюджет" style="text;html=1;strokeColor=none;fillColor=none;align=center;verticalAlign=middle;whiteSpace=wrap;rounded=0;" parent="1" vertex="1">
          <mxGeometry x="260" y="200" width="60" height="30" as="geometry" />
        </mxCell>
        <mxCell id="OeJ3Y5abxEYUj80r9ZkN-13" value="имя" style="text;html=1;strokeColor=none;fillColor=none;align=center;verticalAlign=middle;whiteSpace=wrap;rounded=0;" parent="1" vertex="1">
          <mxGeometry x="462" y="160" width="60" height="30" as="geometry" />
        </mxCell>
        <mxCell id="OeJ3Y5abxEYUj80r9ZkN-14" value="айди" style="text;html=1;strokeColor=none;fillColor=none;align=center;verticalAlign=middle;whiteSpace=wrap;rounded=0;" parent="1" vertex="1">
          <mxGeometry x="462" y="180" width="60" height="30" as="geometry" />
        </mxCell>
        <mxCell id="OeJ3Y5abxEYUj80r9ZkN-15" value="адрес" style="text;html=1;strokeColor=none;fillColor=none;align=center;verticalAlign=middle;whiteSpace=wrap;rounded=0;" parent="1" vertex="1">
          <mxGeometry x="460" y="200" width="60" height="30" as="geometry" />
        </mxCell>
        <mxCell id="OeJ3Y5abxEYUj80r9ZkN-16" value="зп" style="text;html=1;strokeColor=none;fillColor=none;align=center;verticalAlign=middle;whiteSpace=wrap;rounded=0;" parent="1" vertex="1">
          <mxGeometry x="460" y="220" width="60" height="30" as="geometry" />
        </mxCell>
        <mxCell id="OeJ3Y5abxEYUj80r9ZkN-17" value="дата рождения" style="text;html=1;strokeColor=none;fillColor=none;align=center;verticalAlign=middle;whiteSpace=wrap;rounded=0;" parent="1" vertex="1">
          <mxGeometry x="440" y="240" width="100" height="30" as="geometry" />
        </mxCell>
        <mxCell id="OeJ3Y5abxEYUj80r9ZkN-18" style="edgeStyle=orthogonalEdgeStyle;rounded=0;orthogonalLoop=1;jettySize=auto;html=1;exitX=0.5;exitY=1;exitDx=0;exitDy=0;" parent="1" source="OeJ3Y5abxEYUj80r9ZkN-14" target="OeJ3Y5abxEYUj80r9ZkN-14" edge="1">
          <mxGeometry relative="1" as="geometry" />
        </mxCell>
        <mxCell id="OeJ3Y5abxEYUj80r9ZkN-21" value="Отдел" style="rounded=0;whiteSpace=wrap;html=1;fillColor=#e1d5e7;strokeColor=#9673a6;" parent="1" vertex="1">
          <mxGeometry x="90" y="510" width="120" height="60" as="geometry" />
        </mxCell>
        <mxCell id="OeJ3Y5abxEYUj80r9ZkN-22" value="Проект" style="rounded=0;whiteSpace=wrap;html=1;fillColor=#e1d5e7;strokeColor=#9673a6;" parent="1" vertex="1">
          <mxGeometry x="520" y="510" width="120" height="60" as="geometry" />
        </mxCell>
        <mxCell id="OeJ3Y5abxEYUj80r9ZkN-23" value="Сотрудник" style="rounded=0;whiteSpace=wrap;html=1;fillColor=#e1d5e7;strokeColor=#9673a6;" parent="1" vertex="1">
          <mxGeometry x="192.5" y="880" width="120" height="60" as="geometry" />
        </mxCell>
        <mxCell id="OeJ3Y5abxEYUj80r9ZkN-24" value="айди" style="ellipse;whiteSpace=wrap;html=1;fillColor=#fff2cc;strokeColor=#d6b656;" parent="1" vertex="1">
          <mxGeometry x="-20" y="390" width="70" height="50" as="geometry" />
        </mxCell>
        <mxCell id="OeJ3Y5abxEYUj80r9ZkN-25" value="" style="endArrow=none;html=1;rounded=0;entryX=0.5;entryY=1;entryDx=0;entryDy=0;exitX=0.5;exitY=0;exitDx=0;exitDy=0;" parent="1" source="OeJ3Y5abxEYUj80r9ZkN-21" target="OeJ3Y5abxEYUj80r9ZkN-24" edge="1">
          <mxGeometry width="50" height="50" relative="1" as="geometry">
            <mxPoint x="100" y="490" as="sourcePoint" />
            <mxPoint x="60" y="440" as="targetPoint" />
            <Array as="points" />
          </mxGeometry>
        </mxCell>
        <mxCell id="OeJ3Y5abxEYUj80r9ZkN-26" value="название" style="ellipse;whiteSpace=wrap;html=1;fillColor=#fff2cc;strokeColor=#d6b656;" parent="1" vertex="1">
          <mxGeometry x="60" y="390" width="90" height="50" as="geometry" />
        </mxCell>
        <mxCell id="OeJ3Y5abxEYUj80r9ZkN-28" value="" style="endArrow=none;html=1;rounded=0;entryX=0.5;entryY=1;entryDx=0;entryDy=0;exitX=0.5;exitY=0;exitDx=0;exitDy=0;" parent="1" source="OeJ3Y5abxEYUj80r9ZkN-21" target="OeJ3Y5abxEYUj80r9ZkN-26" edge="1">
          <mxGeometry width="50" height="50" relative="1" as="geometry">
            <mxPoint x="150" y="490" as="sourcePoint" />
            <mxPoint x="200" y="440" as="targetPoint" />
          </mxGeometry>
        </mxCell>
        <mxCell id="OeJ3Y5abxEYUj80r9ZkN-29" value="место-&lt;br&gt;нахождение" style="ellipse;whiteSpace=wrap;html=1;fillColor=#fff2cc;strokeColor=#d6b656;" parent="1" vertex="1">
          <mxGeometry x="160" y="390" width="80" height="50" as="geometry" />
        </mxCell>
        <mxCell id="OeJ3Y5abxEYUj80r9ZkN-30" value="" style="endArrow=none;html=1;rounded=0;entryX=0.5;entryY=1;entryDx=0;entryDy=0;exitX=0.5;exitY=0;exitDx=0;exitDy=0;" parent="1" source="OeJ3Y5abxEYUj80r9ZkN-21" target="OeJ3Y5abxEYUj80r9ZkN-29" edge="1">
          <mxGeometry width="50" height="50" relative="1" as="geometry">
            <mxPoint x="190" y="480" as="sourcePoint" />
            <mxPoint x="230" y="460" as="targetPoint" />
          </mxGeometry>
        </mxCell>
        <mxCell id="OeJ3Y5abxEYUj80r9ZkN-32" value="ун. имя" style="ellipse;whiteSpace=wrap;html=1;fillColor=#fff2cc;strokeColor=#d6b656;" parent="1" vertex="1">
          <mxGeometry x="442" y="390" width="80" height="50" as="geometry" />
        </mxCell>
        <mxCell id="OeJ3Y5abxEYUj80r9ZkN-33" value="ун. номер" style="ellipse;whiteSpace=wrap;html=1;fillColor=#fff2cc;strokeColor=#d6b656;" parent="1" vertex="1">
          <mxGeometry x="540" y="390" width="80" height="50" as="geometry" />
        </mxCell>
        <mxCell id="OeJ3Y5abxEYUj80r9ZkN-34" value="бюджет" style="ellipse;whiteSpace=wrap;html=1;fillColor=#fff2cc;strokeColor=#d6b656;" parent="1" vertex="1">
          <mxGeometry x="640" y="390" width="80" height="50" as="geometry" />
        </mxCell>
        <mxCell id="OeJ3Y5abxEYUj80r9ZkN-35" value="" style="endArrow=none;html=1;rounded=0;entryX=0.425;entryY=1.08;entryDx=0;entryDy=0;entryPerimeter=0;exitX=0.5;exitY=0;exitDx=0;exitDy=0;" parent="1" source="OeJ3Y5abxEYUj80r9ZkN-22" target="OeJ3Y5abxEYUj80r9ZkN-34" edge="1">
          <mxGeometry width="50" height="50" relative="1" as="geometry">
            <mxPoint x="610" y="510" as="sourcePoint" />
            <mxPoint x="660" y="460" as="targetPoint" />
          </mxGeometry>
        </mxCell>
        <mxCell id="OeJ3Y5abxEYUj80r9ZkN-36" value="" style="endArrow=none;html=1;rounded=0;exitX=0.5;exitY=0;exitDx=0;exitDy=0;entryX=0.5;entryY=1;entryDx=0;entryDy=0;" parent="1" source="OeJ3Y5abxEYUj80r9ZkN-22" target="OeJ3Y5abxEYUj80r9ZkN-33" edge="1">
          <mxGeometry width="50" height="50" relative="1" as="geometry">
            <mxPoint x="440" y="500" as="sourcePoint" />
            <mxPoint x="490" y="450" as="targetPoint" />
          </mxGeometry>
        </mxCell>
        <mxCell id="OeJ3Y5abxEYUj80r9ZkN-37" value="" style="endArrow=none;html=1;rounded=0;exitX=0.5;exitY=0;exitDx=0;exitDy=0;entryX=0.5;entryY=1;entryDx=0;entryDy=0;" parent="1" source="OeJ3Y5abxEYUj80r9ZkN-22" target="OeJ3Y5abxEYUj80r9ZkN-32" edge="1">
          <mxGeometry width="50" height="50" relative="1" as="geometry">
            <mxPoint x="440" y="500" as="sourcePoint" />
            <mxPoint x="490" y="450" as="targetPoint" />
          </mxGeometry>
        </mxCell>
        <mxCell id="OeJ3Y5abxEYUj80r9ZkN-38" value="имя" style="ellipse;whiteSpace=wrap;html=1;fillColor=#fff2cc;strokeColor=#d6b656;" parent="1" vertex="1">
          <mxGeometry x="70" y="1010" width="60" height="50" as="geometry" />
        </mxCell>
        <mxCell id="OeJ3Y5abxEYUj80r9ZkN-39" value="Id" style="ellipse;whiteSpace=wrap;html=1;fillColor=#fff2cc;strokeColor=#d6b656;" parent="1" vertex="1">
          <mxGeometry x="137.5" y="1010" width="35" height="50" as="geometry" />
        </mxCell>
        <mxCell id="OeJ3Y5abxEYUj80r9ZkN-40" value="зп" style="ellipse;whiteSpace=wrap;html=1;fillColor=#fff2cc;strokeColor=#d6b656;" parent="1" vertex="1">
          <mxGeometry x="260" y="1002.5" width="46" height="50" as="geometry" />
        </mxCell>
        <mxCell id="OeJ3Y5abxEYUj80r9ZkN-41" value="адрес" style="ellipse;whiteSpace=wrap;html=1;fillColor=#fff2cc;strokeColor=#d6b656;" parent="1" vertex="1">
          <mxGeometry x="185" y="1010" width="55" height="50" as="geometry" />
        </mxCell>
        <mxCell id="OeJ3Y5abxEYUj80r9ZkN-42" value="дата р." style="ellipse;whiteSpace=wrap;html=1;fillColor=#fff2cc;strokeColor=#d6b656;" parent="1" vertex="1">
          <mxGeometry x="330" y="1002.5" width="60" height="50" as="geometry" />
        </mxCell>
        <mxCell id="OeJ3Y5abxEYUj80r9ZkN-45" value="" style="endArrow=none;html=1;rounded=0;entryX=0.5;entryY=1;entryDx=0;entryDy=0;exitX=0.5;exitY=0;exitDx=0;exitDy=0;" parent="1" source="OeJ3Y5abxEYUj80r9ZkN-39" target="OeJ3Y5abxEYUj80r9ZkN-23" edge="1">
          <mxGeometry width="50" height="50" relative="1" as="geometry">
            <mxPoint x="185" y="979.2893218813452" as="sourcePoint" />
            <mxPoint x="227.5" y="940" as="targetPoint" />
          </mxGeometry>
        </mxCell>
        <mxCell id="OeJ3Y5abxEYUj80r9ZkN-46" value="" style="endArrow=none;html=1;rounded=0;exitX=0.5;exitY=0;exitDx=0;exitDy=0;entryX=0.5;entryY=1;entryDx=0;entryDy=0;" parent="1" source="OeJ3Y5abxEYUj80r9ZkN-38" target="OeJ3Y5abxEYUj80r9ZkN-23" edge="1">
          <mxGeometry width="50" height="50" relative="1" as="geometry">
            <mxPoint x="120" y="1000" as="sourcePoint" />
            <mxPoint x="200" y="940" as="targetPoint" />
          </mxGeometry>
        </mxCell>
        <mxCell id="OeJ3Y5abxEYUj80r9ZkN-48" value="" style="endArrow=none;html=1;rounded=0;entryX=0.5;entryY=1;entryDx=0;entryDy=0;" parent="1" source="OeJ3Y5abxEYUj80r9ZkN-40" target="OeJ3Y5abxEYUj80r9ZkN-23" edge="1">
          <mxGeometry width="50" height="50" relative="1" as="geometry">
            <mxPoint x="318" y="979.2893218813452" as="sourcePoint" />
            <mxPoint x="257.5" y="940" as="targetPoint" />
          </mxGeometry>
        </mxCell>
        <mxCell id="OeJ3Y5abxEYUj80r9ZkN-49" value="" style="endArrow=none;html=1;rounded=0;entryX=0.5;entryY=0;entryDx=0;entryDy=0;exitX=0.5;exitY=1;exitDx=0;exitDy=0;" parent="1" source="OeJ3Y5abxEYUj80r9ZkN-23" target="OeJ3Y5abxEYUj80r9ZkN-42" edge="1">
          <mxGeometry width="50" height="50" relative="1" as="geometry">
            <mxPoint x="287.5" y="940" as="sourcePoint" />
            <mxPoint x="275" y="780" as="targetPoint" />
          </mxGeometry>
        </mxCell>
        <mxCell id="OeJ3Y5abxEYUj80r9ZkN-50" value="имеет" style="rhombus;whiteSpace=wrap;html=1;" parent="1" vertex="1">
          <mxGeometry x="115" y="680" width="80" height="80" as="geometry" />
        </mxCell>
        <mxCell id="OeJ3Y5abxEYUj80r9ZkN-51" value="" style="endArrow=none;html=1;rounded=0;exitX=0;exitY=0;exitDx=0;exitDy=0;entryX=0.5;entryY=1;entryDx=0;entryDy=0;" parent="1" source="OeJ3Y5abxEYUj80r9ZkN-23" target="OeJ3Y5abxEYUj80r9ZkN-50" edge="1">
          <mxGeometry width="50" height="50" relative="1" as="geometry">
            <mxPoint x="330" y="740" as="sourcePoint" />
            <mxPoint x="380" y="690" as="targetPoint" />
          </mxGeometry>
        </mxCell>
        <mxCell id="OeJ3Y5abxEYUj80r9ZkN-52" value="" style="endArrow=none;html=1;rounded=0;exitX=0.5;exitY=0;exitDx=0;exitDy=0;entryX=0.5;entryY=1;entryDx=0;entryDy=0;" parent="1" source="OeJ3Y5abxEYUj80r9ZkN-50" target="OeJ3Y5abxEYUj80r9ZkN-21" edge="1">
          <mxGeometry width="50" height="50" relative="1" as="geometry">
            <mxPoint x="330" y="740" as="sourcePoint" />
            <mxPoint x="380" y="690" as="targetPoint" />
          </mxGeometry>
        </mxCell>
        <mxCell id="OeJ3Y5abxEYUj80r9ZkN-53" value="контролирует" style="rhombus;whiteSpace=wrap;html=1;" parent="1" vertex="1">
          <mxGeometry x="320" y="500" width="90" height="80" as="geometry" />
        </mxCell>
        <mxCell id="OeJ3Y5abxEYUj80r9ZkN-54" value="" style="endArrow=none;html=1;rounded=0;exitX=1;exitY=0.5;exitDx=0;exitDy=0;" parent="1" source="OeJ3Y5abxEYUj80r9ZkN-21" target="OeJ3Y5abxEYUj80r9ZkN-53" edge="1">
          <mxGeometry width="50" height="50" relative="1" as="geometry">
            <mxPoint x="210" y="580" as="sourcePoint" />
            <mxPoint x="260" y="530" as="targetPoint" />
          </mxGeometry>
        </mxCell>
        <mxCell id="OeJ3Y5abxEYUj80r9ZkN-55" value="" style="endArrow=none;html=1;rounded=0;exitX=1;exitY=0.5;exitDx=0;exitDy=0;entryX=0;entryY=0.5;entryDx=0;entryDy=0;" parent="1" source="OeJ3Y5abxEYUj80r9ZkN-53" target="OeJ3Y5abxEYUj80r9ZkN-22" edge="1">
          <mxGeometry width="50" height="50" relative="1" as="geometry">
            <mxPoint x="440" y="580" as="sourcePoint" />
            <mxPoint x="490" y="530" as="targetPoint" />
          </mxGeometry>
        </mxCell>
        <mxCell id="OeJ3Y5abxEYUj80r9ZkN-56" value="участвует" style="rhombus;whiteSpace=wrap;html=1;" parent="1" vertex="1">
          <mxGeometry x="500" y="690" width="80" height="80" as="geometry" />
        </mxCell>
        <mxCell id="OeJ3Y5abxEYUj80r9ZkN-58" value="" style="endArrow=none;html=1;rounded=0;exitX=1;exitY=0;exitDx=0;exitDy=0;entryX=0.5;entryY=1;entryDx=0;entryDy=0;" parent="1" source="OeJ3Y5abxEYUj80r9ZkN-23" target="OeJ3Y5abxEYUj80r9ZkN-56" edge="1">
          <mxGeometry width="50" height="50" relative="1" as="geometry">
            <mxPoint x="440" y="790" as="sourcePoint" />
            <mxPoint x="470" y="740" as="targetPoint" />
          </mxGeometry>
        </mxCell>
        <mxCell id="OeJ3Y5abxEYUj80r9ZkN-59" value="" style="endArrow=none;html=1;rounded=0;exitX=0.5;exitY=0;exitDx=0;exitDy=0;entryX=0.5;entryY=1;entryDx=0;entryDy=0;" parent="1" source="OeJ3Y5abxEYUj80r9ZkN-56" target="OeJ3Y5abxEYUj80r9ZkN-22" edge="1">
          <mxGeometry width="50" height="50" relative="1" as="geometry">
            <mxPoint x="580" y="640" as="sourcePoint" />
            <mxPoint x="630" y="590" as="targetPoint" />
          </mxGeometry>
        </mxCell>
        <mxCell id="OeJ3Y5abxEYUj80r9ZkN-60" value="m" style="text;html=1;strokeColor=none;fillColor=none;align=center;verticalAlign=middle;whiteSpace=wrap;rounded=0;" parent="1" vertex="1">
          <mxGeometry x="167.5" y="870" width="25" height="30" as="geometry" />
        </mxCell>
        <mxCell id="OeJ3Y5abxEYUj80r9ZkN-61" value="1" style="text;html=1;strokeColor=none;fillColor=none;align=center;verticalAlign=middle;whiteSpace=wrap;rounded=0;" parent="1" vertex="1">
          <mxGeometry x="130" y="562.5" width="20" height="30" as="geometry" />
        </mxCell>
        <mxCell id="OeJ3Y5abxEYUj80r9ZkN-63" value="m" style="text;html=1;strokeColor=none;fillColor=none;align=center;verticalAlign=middle;whiteSpace=wrap;rounded=0;" parent="1" vertex="1">
          <mxGeometry x="295" y="850" width="25" height="30" as="geometry" />
        </mxCell>
        <mxCell id="OeJ3Y5abxEYUj80r9ZkN-64" value="m" style="text;html=1;strokeColor=none;fillColor=none;align=center;verticalAlign=middle;whiteSpace=wrap;rounded=0;" parent="1" vertex="1">
          <mxGeometry x="580" y="570" width="25" height="30" as="geometry" />
        </mxCell>
        <mxCell id="OeJ3Y5abxEYUj80r9ZkN-65" value="1" style="text;html=1;strokeColor=none;fillColor=none;align=center;verticalAlign=middle;whiteSpace=wrap;rounded=0;" parent="1" vertex="1">
          <mxGeometry x="220" y="510" width="20" height="30" as="geometry" />
        </mxCell>
        <mxCell id="OeJ3Y5abxEYUj80r9ZkN-66" value="m" style="text;html=1;strokeColor=none;fillColor=none;align=center;verticalAlign=middle;whiteSpace=wrap;rounded=0;" parent="1" vertex="1">
          <mxGeometry x="490" y="510" width="20" height="30" as="geometry" />
        </mxCell>
        <mxCell id="LPmaeiVn4D55UDJ0gFhO-1" value="&lt;p style=&quot;margin-bottom:0,0000pt;text-indent:28,3500pt;text-align:justify;&lt;br/&gt;text-justify:inter-ideograph;line-height:150%;&quot; align=&quot;justify&quot; class=&quot;MsoNormal&quot;&gt;&lt;font style=&quot;font-size: 18px;&quot;&gt;&lt;span style=&quot;font-family: &amp;quot;Times New Roman&amp;quot;; line-height: 150%;&quot;&gt;&lt;font style=&quot;&quot; face=&quot;Times New Roman&quot;&gt;Каждый отдел имеет уникальную идентификацию, название, местонахождение офиса и конкретного сотрудника, который управляет отделом. Отдел контролирует ряд проектов, каждый из которых имеет уникальное имя, уникальный номер и бюджет. У каждого сотрудника есть имя, идентификационный номер, адрес, зарплата и дата рождения. Сотрудник назначен в один отдел, но может участвовать в нескольких проектах. необходимо вести учёт дату начала работы сотрудника в каждом проекте, непосредственного руководителя каждого сотрудника. Необходимо хранить информацию об иждивенцах каждого сотрудника. У каждого иждивенца есть имя, дата рождения и отношения с работником.&lt;/font&gt;&lt;/span&gt;&lt;span style=&quot;font-family: &amp;quot;Times New Roman&amp;quot;; line-height: 150%;&quot;&gt;&amp;nbsp;&amp;nbsp;&lt;/span&gt;&lt;/font&gt;&lt;span style=&quot;mso-spacerun:&#39;yes&#39;;font-family:&#39;Times New Roman&#39;;line-height:150%;&lt;br/&gt;font-size:14,0000pt;&quot;&gt;&lt;/span&gt;&lt;/p&gt;" style="text;html=1;strokeColor=none;fillColor=none;align=center;verticalAlign=middle;whiteSpace=wrap;rounded=0;" parent="1" vertex="1">
          <mxGeometry y="-350" width="590" height="280" as="geometry" />
        </mxCell>
        <mxCell id="LPmaeiVn4D55UDJ0gFhO-2" value="отдел" style="rounded=0;whiteSpace=wrap;html=1;fillColor=#e1d5e7;strokeColor=#9673a6;" parent="1" vertex="1">
          <mxGeometry x="880" y="70" width="120" height="60" as="geometry" />
        </mxCell>
        <mxCell id="LPmaeiVn4D55UDJ0gFhO-3" value="Проект" style="rounded=0;whiteSpace=wrap;html=1;fillColor=#e1d5e7;strokeColor=#9673a6;" parent="1" vertex="1">
          <mxGeometry x="1310" y="70" width="120" height="60" as="geometry" />
        </mxCell>
        <mxCell id="LPmaeiVn4D55UDJ0gFhO-4" value="контролирует" style="rhombus;whiteSpace=wrap;html=1;" parent="1" vertex="1">
          <mxGeometry x="1115" y="60" width="90" height="80" as="geometry" />
        </mxCell>
        <mxCell id="LPmaeiVn4D55UDJ0gFhO-7" value="" style="endArrow=none;html=1;rounded=0;exitX=1;exitY=0.5;exitDx=0;exitDy=0;entryX=0;entryY=0.5;entryDx=0;entryDy=0;" parent="1" source="LPmaeiVn4D55UDJ0gFhO-2" target="LPmaeiVn4D55UDJ0gFhO-4" edge="1">
          <mxGeometry width="50" height="50" relative="1" as="geometry">
            <mxPoint x="1000" y="150" as="sourcePoint" />
            <mxPoint x="1050" y="100" as="targetPoint" />
            <Array as="points" />
          </mxGeometry>
        </mxCell>
        <mxCell id="LPmaeiVn4D55UDJ0gFhO-8" value="" style="endArrow=none;html=1;rounded=0;entryX=0;entryY=0.5;entryDx=0;entryDy=0;exitX=1;exitY=0.5;exitDx=0;exitDy=0;" parent="1" source="LPmaeiVn4D55UDJ0gFhO-4" target="LPmaeiVn4D55UDJ0gFhO-3" edge="1">
          <mxGeometry width="50" height="50" relative="1" as="geometry">
            <mxPoint x="1200" y="100" as="sourcePoint" />
            <mxPoint x="1250" y="50" as="targetPoint" />
          </mxGeometry>
        </mxCell>
        <mxCell id="LPmaeiVn4D55UDJ0gFhO-9" value="1" style="text;html=1;strokeColor=none;fillColor=none;align=center;verticalAlign=middle;whiteSpace=wrap;rounded=0;" parent="1" vertex="1">
          <mxGeometry x="1000" y="70" width="40" height="30" as="geometry" />
        </mxCell>
        <mxCell id="LPmaeiVn4D55UDJ0gFhO-10" value="m" style="text;html=1;strokeColor=none;fillColor=none;align=center;verticalAlign=middle;whiteSpace=wrap;rounded=0;" parent="1" vertex="1">
          <mxGeometry x="1280" y="70" width="20" height="30" as="geometry" />
        </mxCell>
        <mxCell id="LPmaeiVn4D55UDJ0gFhO-11" value="Проект" style="rounded=0;whiteSpace=wrap;html=1;fillColor=#e1d5e7;strokeColor=#9673a6;" parent="1" vertex="1">
          <mxGeometry x="1310" y="225" width="120" height="60" as="geometry" />
        </mxCell>
        <mxCell id="LPmaeiVn4D55UDJ0gFhO-12" value="Сотрудник" style="rounded=0;whiteSpace=wrap;html=1;fillColor=#e1d5e7;strokeColor=#9673a6;" parent="1" vertex="1">
          <mxGeometry x="880" y="225" width="120" height="60" as="geometry" />
        </mxCell>
        <mxCell id="LPmaeiVn4D55UDJ0gFhO-14" value="участвует" style="rhombus;whiteSpace=wrap;html=1;" parent="1" vertex="1">
          <mxGeometry x="1120" y="215" width="80" height="80" as="geometry" />
        </mxCell>
        <mxCell id="LPmaeiVn4D55UDJ0gFhO-15" value="" style="endArrow=none;html=1;rounded=0;exitX=1;exitY=0.5;exitDx=0;exitDy=0;entryX=0;entryY=0.5;entryDx=0;entryDy=0;" parent="1" source="LPmaeiVn4D55UDJ0gFhO-12" target="LPmaeiVn4D55UDJ0gFhO-14" edge="1">
          <mxGeometry width="50" height="50" relative="1" as="geometry">
            <mxPoint x="1010" y="250" as="sourcePoint" />
            <mxPoint x="1060" y="200" as="targetPoint" />
          </mxGeometry>
        </mxCell>
        <mxCell id="LPmaeiVn4D55UDJ0gFhO-16" value="" style="endArrow=none;html=1;rounded=0;exitX=1;exitY=0.5;exitDx=0;exitDy=0;entryX=0;entryY=0.5;entryDx=0;entryDy=0;" parent="1" source="LPmaeiVn4D55UDJ0gFhO-14" target="LPmaeiVn4D55UDJ0gFhO-11" edge="1">
          <mxGeometry width="50" height="50" relative="1" as="geometry">
            <mxPoint x="1260" y="300" as="sourcePoint" />
            <mxPoint x="1310" y="250" as="targetPoint" />
          </mxGeometry>
        </mxCell>
        <mxCell id="LPmaeiVn4D55UDJ0gFhO-17" value="m" style="text;html=1;strokeColor=none;fillColor=none;align=center;verticalAlign=middle;whiteSpace=wrap;rounded=0;" parent="1" vertex="1">
          <mxGeometry x="1000" y="225" width="40" height="30" as="geometry" />
        </mxCell>
        <mxCell id="LPmaeiVn4D55UDJ0gFhO-19" value="m" style="text;html=1;strokeColor=none;fillColor=none;align=center;verticalAlign=middle;whiteSpace=wrap;rounded=0;" parent="1" vertex="1">
          <mxGeometry x="1280" y="225" width="20" height="30" as="geometry" />
        </mxCell>
        <mxCell id="LPmaeiVn4D55UDJ0gFhO-21" value="Иждивенец" style="rounded=0;whiteSpace=wrap;html=1;fillColor=#e1d5e7;strokeColor=#9673a6;" parent="1" vertex="1">
          <mxGeometry x="1310" y="592.5" width="120" height="60" as="geometry" />
        </mxCell>
        <mxCell id="LPmaeiVn4D55UDJ0gFhO-22" value="Сотрудник" style="rounded=0;whiteSpace=wrap;html=1;fillColor=#e1d5e7;strokeColor=#9673a6;" parent="1" vertex="1">
          <mxGeometry x="880" y="427.5" width="120" height="60" as="geometry" />
        </mxCell>
        <mxCell id="LPmaeiVn4D55UDJ0gFhO-23" value="отдел" style="rounded=0;whiteSpace=wrap;html=1;fillColor=#e1d5e7;strokeColor=#9673a6;" parent="1" vertex="1">
          <mxGeometry x="1320" y="427.5" width="120" height="60" as="geometry" />
        </mxCell>
        <mxCell id="LPmaeiVn4D55UDJ0gFhO-24" value="имеет" style="rhombus;whiteSpace=wrap;html=1;" parent="1" vertex="1">
          <mxGeometry x="1120" y="417.5" width="80" height="80" as="geometry" />
        </mxCell>
        <mxCell id="LPmaeiVn4D55UDJ0gFhO-25" value="" style="endArrow=none;html=1;rounded=0;entryX=0;entryY=0.5;entryDx=0;entryDy=0;exitX=1;exitY=0.5;exitDx=0;exitDy=0;" parent="1" source="LPmaeiVn4D55UDJ0gFhO-22" target="LPmaeiVn4D55UDJ0gFhO-24" edge="1">
          <mxGeometry width="50" height="50" relative="1" as="geometry">
            <mxPoint x="1030" y="497.5" as="sourcePoint" />
            <mxPoint x="1080" y="447.5" as="targetPoint" />
          </mxGeometry>
        </mxCell>
        <mxCell id="LPmaeiVn4D55UDJ0gFhO-26" value="" style="endArrow=none;html=1;rounded=0;exitX=1;exitY=0.5;exitDx=0;exitDy=0;entryX=0;entryY=0.5;entryDx=0;entryDy=0;" parent="1" source="LPmaeiVn4D55UDJ0gFhO-24" target="LPmaeiVn4D55UDJ0gFhO-23" edge="1">
          <mxGeometry width="50" height="50" relative="1" as="geometry">
            <mxPoint x="1210" y="467.5" as="sourcePoint" />
            <mxPoint x="1260" y="417.5" as="targetPoint" />
          </mxGeometry>
        </mxCell>
        <mxCell id="LPmaeiVn4D55UDJ0gFhO-27" value="m" style="text;html=1;strokeColor=none;fillColor=none;align=center;verticalAlign=middle;whiteSpace=wrap;rounded=0;" parent="1" vertex="1">
          <mxGeometry x="1000" y="427.5" width="40" height="30" as="geometry" />
        </mxCell>
        <mxCell id="LPmaeiVn4D55UDJ0gFhO-28" value="1" style="text;html=1;strokeColor=none;fillColor=none;align=center;verticalAlign=middle;whiteSpace=wrap;rounded=0;" parent="1" vertex="1">
          <mxGeometry x="1280" y="427.5" width="40" height="30" as="geometry" />
        </mxCell>
        <mxCell id="LPmaeiVn4D55UDJ0gFhO-30" value="Сотрудник" style="rounded=0;whiteSpace=wrap;html=1;fillColor=#e1d5e7;strokeColor=#9673a6;" parent="1" vertex="1">
          <mxGeometry x="880" y="592.5" width="120" height="60" as="geometry" />
        </mxCell>
        <mxCell id="LPmaeiVn4D55UDJ0gFhO-31" value="имеет" style="rhombus;whiteSpace=wrap;html=1;" parent="1" vertex="1">
          <mxGeometry x="1120" y="582.5" width="80" height="80" as="geometry" />
        </mxCell>
        <mxCell id="LPmaeiVn4D55UDJ0gFhO-32" value="дата начала работы с проектом" style="ellipse;whiteSpace=wrap;html=1;fillColor=#fff2cc;strokeColor=#d6b656;" parent="1" vertex="1">
          <mxGeometry x="1090" y="320" width="140" height="60" as="geometry" />
        </mxCell>
        <mxCell id="LPmaeiVn4D55UDJ0gFhO-33" value="" style="endArrow=none;html=1;rounded=0;entryX=0.5;entryY=1;entryDx=0;entryDy=0;exitX=0.5;exitY=0;exitDx=0;exitDy=0;" parent="1" source="LPmaeiVn4D55UDJ0gFhO-32" target="LPmaeiVn4D55UDJ0gFhO-14" edge="1">
          <mxGeometry width="50" height="50" relative="1" as="geometry">
            <mxPoint x="1310" y="330" as="sourcePoint" />
            <mxPoint x="1360" y="280" as="targetPoint" />
          </mxGeometry>
        </mxCell>
        <mxCell id="LPmaeiVn4D55UDJ0gFhO-34" value="" style="endArrow=none;html=1;rounded=0;entryX=1;entryY=0.5;entryDx=0;entryDy=0;exitX=0;exitY=0.5;exitDx=0;exitDy=0;" parent="1" source="LPmaeiVn4D55UDJ0gFhO-31" target="LPmaeiVn4D55UDJ0gFhO-30" edge="1">
          <mxGeometry width="50" height="50" relative="1" as="geometry">
            <mxPoint x="1190" y="462.5" as="sourcePoint" />
            <mxPoint x="1240" y="412.5" as="targetPoint" />
          </mxGeometry>
        </mxCell>
        <mxCell id="LPmaeiVn4D55UDJ0gFhO-35" value="" style="endArrow=none;html=1;rounded=0;exitX=1;exitY=0.5;exitDx=0;exitDy=0;entryX=0;entryY=0.5;entryDx=0;entryDy=0;" parent="1" source="LPmaeiVn4D55UDJ0gFhO-31" target="LPmaeiVn4D55UDJ0gFhO-21" edge="1">
          <mxGeometry width="50" height="50" relative="1" as="geometry">
            <mxPoint x="1220" y="632.5" as="sourcePoint" />
            <mxPoint x="1270" y="582.5" as="targetPoint" />
          </mxGeometry>
        </mxCell>
        <mxCell id="LPmaeiVn4D55UDJ0gFhO-37" value="m" style="text;html=1;strokeColor=none;fillColor=none;align=center;verticalAlign=middle;whiteSpace=wrap;rounded=0;" parent="1" vertex="1">
          <mxGeometry x="1270" y="592.5" width="30" height="30" as="geometry" />
        </mxCell>
        <mxCell id="LPmaeiVn4D55UDJ0gFhO-42" value="1" style="text;html=1;strokeColor=none;fillColor=none;align=center;verticalAlign=middle;whiteSpace=wrap;rounded=0;" parent="1" vertex="1">
          <mxGeometry x="1000" y="592.5" width="40" height="30" as="geometry" />
        </mxCell>
        <mxCell id="LPmaeiVn4D55UDJ0gFhO-45" value="иждивенец" style="rounded=0;whiteSpace=wrap;html=1;fillColor=#e1d5e7;strokeColor=#9673a6;" parent="1" vertex="1">
          <mxGeometry x="657.5" y="880" width="120" height="60" as="geometry" />
        </mxCell>
        <mxCell id="LPmaeiVn4D55UDJ0gFhO-46" value="имя" style="ellipse;whiteSpace=wrap;html=1;fillColor=#fff2cc;strokeColor=#d6b656;" parent="1" vertex="1">
          <mxGeometry x="620" y="997.5" width="60" height="50" as="geometry" />
        </mxCell>
        <mxCell id="LPmaeiVn4D55UDJ0gFhO-47" value="дата р." style="ellipse;whiteSpace=wrap;html=1;fillColor=#fff2cc;strokeColor=#d6b656;" parent="1" vertex="1">
          <mxGeometry x="687.5" y="997.5" width="60" height="50" as="geometry" />
        </mxCell>
        <mxCell id="LPmaeiVn4D55UDJ0gFhO-50" value="отнош-я с&lt;br&gt;работником" style="ellipse;whiteSpace=wrap;html=1;fillColor=#fff2cc;strokeColor=#d6b656;" parent="1" vertex="1">
          <mxGeometry x="760" y="997.5" width="80" height="55" as="geometry" />
        </mxCell>
        <mxCell id="LPmaeiVn4D55UDJ0gFhO-51" value="" style="endArrow=none;html=1;rounded=0;exitX=0.5;exitY=0;exitDx=0;exitDy=0;entryX=0.5;entryY=1;entryDx=0;entryDy=0;" parent="1" source="LPmaeiVn4D55UDJ0gFhO-46" target="LPmaeiVn4D55UDJ0gFhO-45" edge="1">
          <mxGeometry width="50" height="50" relative="1" as="geometry">
            <mxPoint x="610" y="997.5" as="sourcePoint" />
            <mxPoint x="660" y="947.5" as="targetPoint" />
          </mxGeometry>
        </mxCell>
        <mxCell id="LPmaeiVn4D55UDJ0gFhO-52" value="" style="endArrow=none;html=1;rounded=0;entryX=0.5;entryY=1;entryDx=0;entryDy=0;exitX=0.5;exitY=0;exitDx=0;exitDy=0;" parent="1" source="LPmaeiVn4D55UDJ0gFhO-47" target="LPmaeiVn4D55UDJ0gFhO-45" edge="1">
          <mxGeometry width="50" height="50" relative="1" as="geometry">
            <mxPoint x="580" y="837.5" as="sourcePoint" />
            <mxPoint x="630" y="787.5" as="targetPoint" />
          </mxGeometry>
        </mxCell>
        <mxCell id="LPmaeiVn4D55UDJ0gFhO-53" value="" style="endArrow=none;html=1;rounded=0;exitX=0.5;exitY=1;exitDx=0;exitDy=0;entryX=0.5;entryY=0;entryDx=0;entryDy=0;" parent="1" source="LPmaeiVn4D55UDJ0gFhO-45" target="LPmaeiVn4D55UDJ0gFhO-50" edge="1">
          <mxGeometry width="50" height="50" relative="1" as="geometry">
            <mxPoint x="740" y="987.5" as="sourcePoint" />
            <mxPoint x="790" y="937.5" as="targetPoint" />
          </mxGeometry>
        </mxCell>
        <mxCell id="LPmaeiVn4D55UDJ0gFhO-54" value="имеет" style="rhombus;whiteSpace=wrap;html=1;" parent="1" vertex="1">
          <mxGeometry x="470" y="870" width="80" height="80" as="geometry" />
        </mxCell>
        <mxCell id="LPmaeiVn4D55UDJ0gFhO-55" value="" style="endArrow=none;html=1;rounded=0;exitX=1;exitY=0.5;exitDx=0;exitDy=0;entryX=0;entryY=0.5;entryDx=0;entryDy=0;" parent="1" source="OeJ3Y5abxEYUj80r9ZkN-23" target="LPmaeiVn4D55UDJ0gFhO-54" edge="1">
          <mxGeometry width="50" height="50" relative="1" as="geometry">
            <mxPoint x="360" y="930" as="sourcePoint" />
            <mxPoint x="410" y="880" as="targetPoint" />
          </mxGeometry>
        </mxCell>
        <mxCell id="LPmaeiVn4D55UDJ0gFhO-56" value="" style="endArrow=none;html=1;rounded=0;exitX=1;exitY=0.5;exitDx=0;exitDy=0;entryX=0;entryY=0.5;entryDx=0;entryDy=0;" parent="1" source="LPmaeiVn4D55UDJ0gFhO-54" target="LPmaeiVn4D55UDJ0gFhO-45" edge="1">
          <mxGeometry width="50" height="50" relative="1" as="geometry">
            <mxPoint x="540" y="910" as="sourcePoint" />
            <mxPoint x="590" y="860" as="targetPoint" />
          </mxGeometry>
        </mxCell>
        <mxCell id="LPmaeiVn4D55UDJ0gFhO-57" value="1" style="text;html=1;strokeColor=none;fillColor=none;align=center;verticalAlign=middle;whiteSpace=wrap;rounded=0;" parent="1" vertex="1">
          <mxGeometry x="311" y="880" width="25" height="30" as="geometry" />
        </mxCell>
        <mxCell id="LPmaeiVn4D55UDJ0gFhO-58" value="m" style="text;html=1;strokeColor=none;fillColor=none;align=center;verticalAlign=middle;whiteSpace=wrap;rounded=0;" parent="1" vertex="1">
          <mxGeometry x="640" y="880" width="20" height="30" as="geometry" />
        </mxCell>
        <mxCell id="LPmaeiVn4D55UDJ0gFhO-60" value="дата начала работы с проектом" style="ellipse;whiteSpace=wrap;html=1;fillColor=#fff2cc;strokeColor=#d6b656;" parent="1" vertex="1">
          <mxGeometry x="620" y="695" width="130" height="70" as="geometry" />
        </mxCell>
        <mxCell id="LPmaeiVn4D55UDJ0gFhO-61" value="" style="endArrow=none;html=1;rounded=0;entryX=0;entryY=0.5;entryDx=0;entryDy=0;exitX=1;exitY=0.5;exitDx=0;exitDy=0;" parent="1" source="OeJ3Y5abxEYUj80r9ZkN-56" target="LPmaeiVn4D55UDJ0gFhO-60" edge="1">
          <mxGeometry width="50" height="50" relative="1" as="geometry">
            <mxPoint x="620" y="760" as="sourcePoint" />
            <mxPoint x="670" y="710" as="targetPoint" />
          </mxGeometry>
        </mxCell>
        <mxCell id="LPmaeiVn4D55UDJ0gFhO-63" value="руководитель" style="ellipse;whiteSpace=wrap;html=1;fillColor=#fff2cc;strokeColor=#d6b656;" parent="1" vertex="1">
          <mxGeometry x="245" y="390" width="80" height="50" as="geometry" />
        </mxCell>
        <mxCell id="LPmaeiVn4D55UDJ0gFhO-64" style="edgeStyle=orthogonalEdgeStyle;rounded=0;orthogonalLoop=1;jettySize=auto;html=1;entryX=0.5;entryY=0;entryDx=0;entryDy=0;" parent="1" target="OeJ3Y5abxEYUj80r9ZkN-21" edge="1">
          <mxGeometry relative="1" as="geometry">
            <mxPoint x="150" y="510" as="sourcePoint" />
          </mxGeometry>
        </mxCell>
        <mxCell id="LPmaeiVn4D55UDJ0gFhO-65" value="" style="endArrow=none;html=1;rounded=0;exitX=0.5;exitY=0;exitDx=0;exitDy=0;entryX=0.5;entryY=1;entryDx=0;entryDy=0;" parent="1" source="OeJ3Y5abxEYUj80r9ZkN-21" target="LPmaeiVn4D55UDJ0gFhO-63" edge="1">
          <mxGeometry width="50" height="50" relative="1" as="geometry">
            <mxPoint x="220" y="510" as="sourcePoint" />
            <mxPoint x="270" y="460" as="targetPoint" />
          </mxGeometry>
        </mxCell>
        <mxCell id="LPmaeiVn4D55UDJ0gFhO-67" value="сотрудник-&lt;br&gt;руководитель" style="ellipse;whiteSpace=wrap;html=1;fillColor=#fff2cc;strokeColor=#d6b656;" parent="1" vertex="1">
          <mxGeometry x="307.5" y="1070" width="82.5" height="50" as="geometry" />
        </mxCell>
        <mxCell id="LPmaeiVn4D55UDJ0gFhO-68" value="" style="endArrow=none;html=1;rounded=0;exitX=0.5;exitY=0;exitDx=0;exitDy=0;entryX=0.5;entryY=1;entryDx=0;entryDy=0;" parent="1" source="OeJ3Y5abxEYUj80r9ZkN-41" target="OeJ3Y5abxEYUj80r9ZkN-23" edge="1">
          <mxGeometry width="50" height="50" relative="1" as="geometry">
            <mxPoint x="205" y="1000" as="sourcePoint" />
            <mxPoint x="257.5" y="940" as="targetPoint" />
          </mxGeometry>
        </mxCell>
        <mxCell id="LPmaeiVn4D55UDJ0gFhO-70" value="" style="endArrow=none;html=1;rounded=0;exitX=0.5;exitY=0;exitDx=0;exitDy=0;entryX=0.5;entryY=1;entryDx=0;entryDy=0;" parent="1" source="LPmaeiVn4D55UDJ0gFhO-67" target="OeJ3Y5abxEYUj80r9ZkN-23" edge="1">
          <mxGeometry width="50" height="50" relative="1" as="geometry">
            <mxPoint x="365" y="990" as="sourcePoint" />
            <mxPoint x="317.5" y="940" as="targetPoint" />
          </mxGeometry>
        </mxCell>
        <mxCell id="LPmaeiVn4D55UDJ0gFhO-74" value="дата начала работы с проектом" style="ellipse;whiteSpace=wrap;html=1;fillColor=#fff2cc;strokeColor=#d6b656;" parent="1" vertex="1">
          <mxGeometry x="185" y="1070" width="110" height="60" as="geometry" />
        </mxCell>
        <mxCell id="LPmaeiVn4D55UDJ0gFhO-75" value="" style="endArrow=none;html=1;rounded=0;entryX=0.5;entryY=1;entryDx=0;entryDy=0;exitX=0.5;exitY=0;exitDx=0;exitDy=0;" parent="1" source="LPmaeiVn4D55UDJ0gFhO-74" target="OeJ3Y5abxEYUj80r9ZkN-23" edge="1">
          <mxGeometry width="50" height="50" relative="1" as="geometry">
            <mxPoint x="298.5" y="1120" as="sourcePoint" />
            <mxPoint x="348.5" y="1070" as="targetPoint" />
          </mxGeometry>
        </mxCell>
        <mxCell id="JWKq0oKuamZcvrNYcu8j-1" value="Отдел" style="swimlane;fontStyle=0;childLayout=stackLayout;horizontal=1;startSize=30;horizontalStack=0;resizeParent=1;resizeParentMax=0;resizeLast=0;collapsible=1;marginBottom=0;whiteSpace=wrap;html=1;fillColor=#e1d5e7;strokeColor=#9673a6;" vertex="1" parent="1">
          <mxGeometry x="920" y="-760" width="140" height="150" as="geometry">
            <mxRectangle x="590" y="-10" width="80" height="30" as="alternateBounds" />
          </mxGeometry>
        </mxCell>
        <mxCell id="JWKq0oKuamZcvrNYcu8j-2" value="айди" style="text;strokeColor=none;fillColor=none;align=left;verticalAlign=middle;spacingLeft=4;spacingRight=4;overflow=hidden;points=[[0,0.5],[1,0.5]];portConstraint=eastwest;rotatable=0;whiteSpace=wrap;html=1;" vertex="1" parent="JWKq0oKuamZcvrNYcu8j-1">
          <mxGeometry y="30" width="140" height="30" as="geometry" />
        </mxCell>
        <mxCell id="JWKq0oKuamZcvrNYcu8j-3" value="название&lt;span style=&quot;white-space: pre;&quot;&gt;	&lt;/span&gt;&lt;span style=&quot;white-space: pre;&quot;&gt;	&lt;/span&gt;&lt;span style=&quot;white-space: pre;&quot;&gt;	&lt;/span&gt;&lt;span style=&quot;white-space: pre;&quot;&gt;	&lt;/span&gt;&lt;span style=&quot;white-space: pre;&quot;&gt;	&lt;/span&gt;&lt;span style=&quot;white-space: pre;&quot;&gt;	&lt;/span&gt;" style="text;strokeColor=none;fillColor=none;align=left;verticalAlign=middle;spacingLeft=4;spacingRight=4;overflow=hidden;points=[[0,0.5],[1,0.5]];portConstraint=eastwest;rotatable=0;whiteSpace=wrap;html=1;" vertex="1" parent="JWKq0oKuamZcvrNYcu8j-1">
          <mxGeometry y="60" width="140" height="30" as="geometry" />
        </mxCell>
        <mxCell id="JWKq0oKuamZcvrNYcu8j-4" value="местонахождение" style="text;strokeColor=none;fillColor=none;align=left;verticalAlign=middle;spacingLeft=4;spacingRight=4;overflow=hidden;points=[[0,0.5],[1,0.5]];portConstraint=eastwest;rotatable=0;whiteSpace=wrap;html=1;" vertex="1" parent="JWKq0oKuamZcvrNYcu8j-1">
          <mxGeometry y="90" width="140" height="30" as="geometry" />
        </mxCell>
        <mxCell id="JWKq0oKuamZcvrNYcu8j-14" value="руководитель" style="text;strokeColor=none;fillColor=none;align=left;verticalAlign=middle;spacingLeft=4;spacingRight=4;overflow=hidden;points=[[0,0.5],[1,0.5]];portConstraint=eastwest;rotatable=0;whiteSpace=wrap;html=1;" vertex="1" parent="JWKq0oKuamZcvrNYcu8j-1">
          <mxGeometry y="120" width="140" height="30" as="geometry" />
        </mxCell>
        <mxCell id="JWKq0oKuamZcvrNYcu8j-9" value="Проект" style="swimlane;fontStyle=0;childLayout=stackLayout;horizontal=1;startSize=30;horizontalStack=0;resizeParent=1;resizeParentMax=0;resizeLast=0;collapsible=1;marginBottom=0;whiteSpace=wrap;html=1;fillColor=#e1d5e7;strokeColor=#9673a6;" vertex="1" parent="1">
          <mxGeometry x="1280" y="-760" width="140" height="120" as="geometry" />
        </mxCell>
        <mxCell id="JWKq0oKuamZcvrNYcu8j-10" value="уникальное имя" style="text;strokeColor=none;fillColor=none;align=left;verticalAlign=middle;spacingLeft=4;spacingRight=4;overflow=hidden;points=[[0,0.5],[1,0.5]];portConstraint=eastwest;rotatable=0;whiteSpace=wrap;html=1;" vertex="1" parent="JWKq0oKuamZcvrNYcu8j-9">
          <mxGeometry y="30" width="140" height="30" as="geometry" />
        </mxCell>
        <mxCell id="JWKq0oKuamZcvrNYcu8j-11" value="уникальный номер" style="text;strokeColor=none;fillColor=none;align=left;verticalAlign=middle;spacingLeft=4;spacingRight=4;overflow=hidden;points=[[0,0.5],[1,0.5]];portConstraint=eastwest;rotatable=0;whiteSpace=wrap;html=1;" vertex="1" parent="JWKq0oKuamZcvrNYcu8j-9">
          <mxGeometry y="60" width="140" height="30" as="geometry" />
        </mxCell>
        <mxCell id="JWKq0oKuamZcvrNYcu8j-12" value="бюджет" style="text;strokeColor=none;fillColor=none;align=left;verticalAlign=middle;spacingLeft=4;spacingRight=4;overflow=hidden;points=[[0,0.5],[1,0.5]];portConstraint=eastwest;rotatable=0;whiteSpace=wrap;html=1;" vertex="1" parent="JWKq0oKuamZcvrNYcu8j-9">
          <mxGeometry y="90" width="140" height="30" as="geometry" />
        </mxCell>
        <mxCell id="JWKq0oKuamZcvrNYcu8j-15" value="Сотрудник" style="swimlane;fontStyle=0;childLayout=stackLayout;horizontal=1;startSize=30;horizontalStack=0;resizeParent=1;resizeParentMax=0;resizeLast=0;collapsible=1;marginBottom=0;whiteSpace=wrap;html=1;fillColor=#e1d5e7;strokeColor=#9673a6;" vertex="1" parent="1">
          <mxGeometry x="960" y="-480" width="170" height="250" as="geometry" />
        </mxCell>
        <mxCell id="JWKq0oKuamZcvrNYcu8j-16" value="имя" style="text;strokeColor=none;fillColor=none;align=left;verticalAlign=middle;spacingLeft=4;spacingRight=4;overflow=hidden;points=[[0,0.5],[1,0.5]];portConstraint=eastwest;rotatable=0;whiteSpace=wrap;html=1;" vertex="1" parent="JWKq0oKuamZcvrNYcu8j-15">
          <mxGeometry y="30" width="170" height="30" as="geometry" />
        </mxCell>
        <mxCell id="JWKq0oKuamZcvrNYcu8j-17" value="id" style="text;strokeColor=none;fillColor=none;align=left;verticalAlign=middle;spacingLeft=4;spacingRight=4;overflow=hidden;points=[[0,0.5],[1,0.5]];portConstraint=eastwest;rotatable=0;whiteSpace=wrap;html=1;" vertex="1" parent="JWKq0oKuamZcvrNYcu8j-15">
          <mxGeometry y="60" width="170" height="30" as="geometry" />
        </mxCell>
        <mxCell id="JWKq0oKuamZcvrNYcu8j-18" value="адрес" style="text;strokeColor=none;fillColor=none;align=left;verticalAlign=middle;spacingLeft=4;spacingRight=4;overflow=hidden;points=[[0,0.5],[1,0.5]];portConstraint=eastwest;rotatable=0;whiteSpace=wrap;html=1;" vertex="1" parent="JWKq0oKuamZcvrNYcu8j-15">
          <mxGeometry y="90" width="170" height="30" as="geometry" />
        </mxCell>
        <mxCell id="JWKq0oKuamZcvrNYcu8j-19" value="зарплата" style="text;strokeColor=none;fillColor=none;align=left;verticalAlign=middle;spacingLeft=4;spacingRight=4;overflow=hidden;points=[[0,0.5],[1,0.5]];portConstraint=eastwest;rotatable=0;whiteSpace=wrap;html=1;" vertex="1" parent="JWKq0oKuamZcvrNYcu8j-15">
          <mxGeometry y="120" width="170" height="30" as="geometry" />
        </mxCell>
        <mxCell id="JWKq0oKuamZcvrNYcu8j-20" value="дата рождения" style="text;strokeColor=none;fillColor=none;align=left;verticalAlign=middle;spacingLeft=4;spacingRight=4;overflow=hidden;points=[[0,0.5],[1,0.5]];portConstraint=eastwest;rotatable=0;whiteSpace=wrap;html=1;" vertex="1" parent="JWKq0oKuamZcvrNYcu8j-15">
          <mxGeometry y="150" width="170" height="30" as="geometry" />
        </mxCell>
        <mxCell id="JWKq0oKuamZcvrNYcu8j-21" value="сотрудник-руководитель" style="text;strokeColor=none;fillColor=none;align=left;verticalAlign=middle;spacingLeft=4;spacingRight=4;overflow=hidden;points=[[0,0.5],[1,0.5]];portConstraint=eastwest;rotatable=0;whiteSpace=wrap;html=1;" vertex="1" parent="JWKq0oKuamZcvrNYcu8j-15">
          <mxGeometry y="180" width="170" height="30" as="geometry" />
        </mxCell>
        <mxCell id="JWKq0oKuamZcvrNYcu8j-22" value="дата начала работы с проектом" style="text;strokeColor=none;fillColor=none;align=left;verticalAlign=middle;spacingLeft=4;spacingRight=4;overflow=hidden;points=[[0,0.5],[1,0.5]];portConstraint=eastwest;rotatable=0;whiteSpace=wrap;html=1;" vertex="1" parent="JWKq0oKuamZcvrNYcu8j-15">
          <mxGeometry y="210" width="170" height="40" as="geometry" />
        </mxCell>
        <mxCell id="JWKq0oKuamZcvrNYcu8j-23" value="Иждивенец" style="swimlane;fontStyle=0;childLayout=stackLayout;horizontal=1;startSize=30;horizontalStack=0;resizeParent=1;resizeParentMax=0;resizeLast=0;collapsible=1;marginBottom=0;whiteSpace=wrap;html=1;fillColor=#e1d5e7;strokeColor=#9673a6;" vertex="1" parent="1">
          <mxGeometry x="1300" y="-420" width="140" height="120" as="geometry" />
        </mxCell>
        <mxCell id="JWKq0oKuamZcvrNYcu8j-24" value="имя" style="text;strokeColor=none;fillColor=none;align=left;verticalAlign=middle;spacingLeft=4;spacingRight=4;overflow=hidden;points=[[0,0.5],[1,0.5]];portConstraint=eastwest;rotatable=0;whiteSpace=wrap;html=1;" vertex="1" parent="JWKq0oKuamZcvrNYcu8j-23">
          <mxGeometry y="30" width="140" height="30" as="geometry" />
        </mxCell>
        <mxCell id="JWKq0oKuamZcvrNYcu8j-25" value="дата рождения" style="text;strokeColor=none;fillColor=none;align=left;verticalAlign=middle;spacingLeft=4;spacingRight=4;overflow=hidden;points=[[0,0.5],[1,0.5]];portConstraint=eastwest;rotatable=0;whiteSpace=wrap;html=1;" vertex="1" parent="JWKq0oKuamZcvrNYcu8j-23">
          <mxGeometry y="60" width="140" height="30" as="geometry" />
        </mxCell>
        <mxCell id="JWKq0oKuamZcvrNYcu8j-26" value="отношения с работником" style="text;strokeColor=none;fillColor=none;align=left;verticalAlign=middle;spacingLeft=4;spacingRight=4;overflow=hidden;points=[[0,0.5],[1,0.5]];portConstraint=eastwest;rotatable=0;whiteSpace=wrap;html=1;" vertex="1" parent="JWKq0oKuamZcvrNYcu8j-23">
          <mxGeometry y="90" width="140" height="30" as="geometry" />
        </mxCell>
        <mxCell id="JWKq0oKuamZcvrNYcu8j-30" style="edgeStyle=orthogonalEdgeStyle;rounded=0;orthogonalLoop=1;jettySize=auto;html=1;exitX=1;exitY=0.5;exitDx=0;exitDy=0;endArrow=ERzeroToMany;endFill=0;entryX=0;entryY=0.5;entryDx=0;entryDy=0;startArrow=ERmandOne;startFill=0;" edge="1" parent="1" source="JWKq0oKuamZcvrNYcu8j-3" target="JWKq0oKuamZcvrNYcu8j-11">
          <mxGeometry relative="1" as="geometry">
            <mxPoint x="990" y="-600" as="targetPoint" />
          </mxGeometry>
        </mxCell>
        <mxCell id="JWKq0oKuamZcvrNYcu8j-32" value="контролирует" style="text;html=1;strokeColor=none;fillColor=none;align=center;verticalAlign=middle;whiteSpace=wrap;rounded=0;" vertex="1" parent="1">
          <mxGeometry x="1210" y="-720" width="60" height="30" as="geometry" />
        </mxCell>
        <mxCell id="JWKq0oKuamZcvrNYcu8j-33" value="контролируется" style="text;html=1;strokeColor=none;fillColor=none;align=center;verticalAlign=middle;whiteSpace=wrap;rounded=0;" vertex="1" parent="1">
          <mxGeometry x="1080" y="-720" width="60" height="30" as="geometry" />
        </mxCell>
        <mxCell id="JWKq0oKuamZcvrNYcu8j-34" style="edgeStyle=orthogonalEdgeStyle;rounded=0;orthogonalLoop=1;jettySize=auto;html=1;exitX=0.5;exitY=0;exitDx=0;exitDy=0;endArrow=ERmandOne;endFill=0;startArrow=ERzeroToMany;startFill=0;" edge="1" parent="1" source="JWKq0oKuamZcvrNYcu8j-15">
          <mxGeometry relative="1" as="geometry">
            <mxPoint x="989" y="-609" as="targetPoint" />
            <mxPoint x="980" y="-550" as="sourcePoint" />
          </mxGeometry>
        </mxCell>
        <mxCell id="JWKq0oKuamZcvrNYcu8j-35" value="имеет" style="text;html=1;strokeColor=none;fillColor=none;align=center;verticalAlign=middle;whiteSpace=wrap;rounded=0;" vertex="1" parent="1">
          <mxGeometry x="980" y="-510" width="60" height="30" as="geometry" />
        </mxCell>
        <mxCell id="JWKq0oKuamZcvrNYcu8j-36" value="имеется" style="text;html=1;strokeColor=none;fillColor=none;align=center;verticalAlign=middle;whiteSpace=wrap;rounded=0;" vertex="1" parent="1">
          <mxGeometry x="930" y="-599" width="60" height="30" as="geometry" />
        </mxCell>
        <mxCell id="JWKq0oKuamZcvrNYcu8j-38" value="имеет" style="text;html=1;strokeColor=none;fillColor=none;align=center;verticalAlign=middle;whiteSpace=wrap;rounded=0;" vertex="1" parent="1">
          <mxGeometry x="1250" y="-400" width="60" height="30" as="geometry" />
        </mxCell>
        <mxCell id="JWKq0oKuamZcvrNYcu8j-39" value="имеется" style="text;html=1;strokeColor=none;fillColor=none;align=center;verticalAlign=middle;whiteSpace=wrap;rounded=0;" vertex="1" parent="1">
          <mxGeometry x="1130" y="-410" width="60" height="30" as="geometry" />
        </mxCell>
        <mxCell id="JWKq0oKuamZcvrNYcu8j-41" style="edgeStyle=orthogonalEdgeStyle;rounded=0;orthogonalLoop=1;jettySize=auto;html=1;endArrow=ERzeroToMany;endFill=0;entryX=0;entryY=0.5;entryDx=0;entryDy=0;startArrow=ERmandOne;startFill=0;exitX=1;exitY=0.5;exitDx=0;exitDy=0;" edge="1" parent="1">
          <mxGeometry relative="1" as="geometry">
            <mxPoint x="1300" y="-370" as="targetPoint" />
            <mxPoint x="1130" y="-370" as="sourcePoint" />
          </mxGeometry>
        </mxCell>
        <mxCell id="JWKq0oKuamZcvrNYcu8j-42" style="edgeStyle=orthogonalEdgeStyle;rounded=0;orthogonalLoop=1;jettySize=auto;html=1;endArrow=ERzeroToMany;endFill=0;startArrow=ERmandOne;startFill=0;exitX=1;exitY=0.5;exitDx=0;exitDy=0;" edge="1" parent="1" target="JWKq0oKuamZcvrNYcu8j-12">
          <mxGeometry relative="1" as="geometry">
            <mxPoint x="1354" y="-637" as="targetPoint" />
            <mxPoint x="1130" y="-460" as="sourcePoint" />
            <Array as="points">
              <mxPoint x="1220" y="-460" />
              <mxPoint x="1220" y="-550" />
              <mxPoint x="1354" y="-550" />
            </Array>
          </mxGeometry>
        </mxCell>
        <mxCell id="JWKq0oKuamZcvrNYcu8j-43" value="участвует" style="text;html=1;strokeColor=none;fillColor=none;align=center;verticalAlign=middle;whiteSpace=wrap;rounded=0;fontColor=#000000;" vertex="1" parent="1">
          <mxGeometry x="1290" y="-640" width="60" height="30" as="geometry" />
        </mxCell>
      </root>
    </mxGraphModel>
  </diagram>
</mxfile>
